<svg width="18" height="20" viewBox="0 0 18 20" fill="none" xmlns="http://www.w3.org/2000/svg">
<path d="M10.6293 16.4031C11.4588 14.4166 10.0881 11.8761 7.56773 10.7287C5.04732 9.58125 2.33163 10.2615 1.50206 12.248C0.672496 14.2345 2.04319 16.775 4.5636 17.9224C7.08401 19.0699 9.7997 18.3896 10.6293 16.4031Z" stroke="#3A3734" stroke-miterlimit="10" stroke-linecap="round" stroke-linejoin="round"/>
<path d="M1.83398 12.1524C1.83398 12.1524 4.03204 14.7046 5.7487 14.4786C7.46535 14.2526 8.39085 14.9578 10.3538 16.9138" stroke="#3A3734" stroke-miterlimit="10" stroke-linecap="round" stroke-linejoin="round"/>
<path d="M7.11133 10.4418C7.13745 8.51308 8.91754 6.86487 11.3768 6.3934C14.0824 5.87518 16.5753 7.18438 16.9522 9.31574C17.3291 11.4471 15.4408 13.5941 12.7352 14.1123C12.0598 14.2409 11.3955 14.2564 10.776 14.1746" stroke="#3A3734" stroke-miterlimit="10" stroke-linecap="round" stroke-linejoin="round"/>
<path d="M16.7245 9.58849C16.7245 9.58849 13.5337 8.75465 12.2351 9.94307C10.9326 11.1315 9.91011 11.0691 7.23438 10.5899" stroke="#3A3734" stroke-miterlimit="10" stroke-linecap="round" stroke-linejoin="round"/>
<path d="M7.26003 7.9697C9.74949 7.49244 11.4879 5.51492 11.1428 3.55278C10.7978 1.59063 8.49994 0.386891 6.01049 0.864144C3.52103 1.3414 1.78265 3.31892 2.1277 5.28106C2.47275 7.24321 4.77058 8.44695 7.26003 7.9697Z" stroke="#3A3734" stroke-miterlimit="10" stroke-linecap="round" stroke-linejoin="round"/>
<path d="M10.9359 3.80615C10.9359 3.80615 7.99897 3.03854 6.80104 4.13345C5.60312 5.22835 4.54701 5.18549 2.08398 4.74519" stroke="#3A3734" stroke-miterlimit="10" stroke-linecap="round" stroke-linejoin="round"/>
</svg>
