<svg width="16" height="19" viewBox="0 0 16 19" fill="none" xmlns="http://www.w3.org/2000/svg">
<path d="M10.6726 18H3.9999C3.21442 18 2.5791 17.3902 2.5791 16.6363V5.50504H12.0934V16.6363C12.0934 17.3902 11.4581 18 10.6726 18Z" stroke="#3A3734" stroke-miterlimit="10" stroke-linecap="round" stroke-linejoin="round"/>
<path d="M12.093 3.85672H1C1 4.76585 1.76622 5.50129 2.71342 5.50129H12.0891V3.85672H12.093Z" stroke="#3A3734" stroke-miterlimit="10" stroke-linecap="round" stroke-linejoin="round"/>
<path d="M12.0934 3.85673H2.5791V3.38369C2.5791 2.62977 3.21442 2.01999 3.9999 2.01999H10.6726C11.4581 2.01999 12.0934 2.62977 12.0934 3.38369V3.85673Z" stroke="#3A3734" stroke-miterlimit="10" stroke-linecap="round" stroke-linejoin="round"/>
<path d="M8.11546 2.02H6.04395V1.99413C6.04395 1.44717 6.50599 1 7.0797 1C7.64956 1 8.11546 1.44348 8.11546 1.99413V2.02Z" stroke="#3A3734" stroke-miterlimit="10" stroke-linecap="round" stroke-linejoin="round"/>
<path d="M13.4944 14.8883H12.0967V5.50504H13.4944C14.3261 5.50504 14.9999 6.15178 14.9999 6.95004V13.4433C14.9999 14.2379 14.3261 14.8883 13.4944 14.8883Z" stroke="#3A3734" stroke-miterlimit="10" stroke-linecap="round" stroke-linejoin="round"/>
<path d="M12.0934 11.0078H2.5791V12.1313H12.0934V11.0078Z" stroke="#3A3734" stroke-miterlimit="10" stroke-linecap="round" stroke-linejoin="round"/>
<path d="M7.08008 5.64914V10.7307" stroke="#3A3734" stroke-miterlimit="10" stroke-linecap="round" stroke-linejoin="round"/>
</svg>
