<svg width="19" height="20" viewBox="0 0 19 20" fill="none" xmlns="http://www.w3.org/2000/svg">
<path d="M7.59203 17.1096C7.66758 16.0656 6.62458 15.1368 5.26243 15.0351C3.90028 14.9334 2.7348 15.6973 2.65925 16.7414C2.5837 17.7854 3.6267 18.7142 4.98885 18.8159C6.351 18.9176 7.51649 18.1537 7.59203 17.1096Z" stroke="#3A3734" stroke-miterlimit="10" stroke-linecap="round" stroke-linejoin="round"/>
<path d="M2.80273 16.6425C2.80273 16.6425 4.23651 17.4401 5.0027 17.0471C5.77269 16.658 6.3151 16.8236 7.54405 17.39" stroke="#3A3734" stroke-miterlimit="10" stroke-linecap="round" stroke-linejoin="round"/>
<path d="M5.00324 14.982C4.71117 14.0998 5.28771 13.048 6.36494 12.4239C7.55217 11.7342 8.92525 11.9153 9.43731 12.8245C9.94937 13.7338 9.40318 15.0283 8.21595 15.7179C7.92009 15.8913 7.61286 16.0068 7.30941 16.0723" stroke="#3A3734" stroke-miterlimit="10" stroke-linecap="round" stroke-linejoin="round"/>
<path d="M9.37685 12.9825C9.37685 12.9825 7.74963 13.1366 7.3286 13.8956C6.90757 14.6546 6.41827 14.7971 5.08691 15.0283" stroke="#3A3734" stroke-miterlimit="10" stroke-linecap="round" stroke-linejoin="round"/>
<path d="M4.68118 13.832C5.7723 13.1984 6.27503 12.0065 5.80406 11.1697C5.33309 10.333 4.06677 10.1683 2.97565 10.8019C1.88453 11.4355 1.3818 12.6275 1.85277 13.4642C2.32374 14.301 3.59006 14.4656 4.68118 13.832Z" stroke="#3A3734" stroke-miterlimit="10" stroke-linecap="round" stroke-linejoin="round"/>
<path d="M5.75069 11.3181C5.75069 11.3181 4.25244 11.4568 3.86555 12.158C3.47486 12.8592 2.97418 13.0172 1.74902 13.2252" stroke="#3A3734" stroke-miterlimit="10" stroke-linecap="round" stroke-linejoin="round"/>
<path d="M3.78256 8.75658C5.0323 8.62011 5.96318 7.73255 5.86174 6.77417C5.7603 5.81579 4.66494 5.1495 3.4152 5.28597C2.16546 5.42245 1.23458 6.31 1.33602 7.26839C1.43747 8.22677 2.53282 8.89306 3.78256 8.75658Z" stroke="#3A3734" stroke-miterlimit="10" stroke-linecap="round" stroke-linejoin="round"/>
<path d="M5.75094 6.88758C5.75094 6.88758 4.32475 6.406 3.69131 6.89143C3.05787 7.37301 2.53822 7.31522 1.33203 7.01087" stroke="#3A3734" stroke-miterlimit="10" stroke-linecap="round" stroke-linejoin="round"/>
<path d="M16.4035 17.1225C17.1623 16.1048 17.1642 14.808 16.4077 14.2261C15.6512 13.6442 14.4228 13.9976 13.664 15.0153C12.9052 16.0331 12.9033 17.3298 13.6598 17.9117C14.4163 18.4936 15.6447 18.1403 16.4035 17.1225Z" stroke="#3A3734" stroke-miterlimit="10" stroke-linecap="round" stroke-linejoin="round"/>
<path d="M16.4161 14.3849C16.4161 14.3849 15.0923 15.113 15.005 15.9105C14.9178 16.708 14.5157 17.0548 13.4727 17.7367" stroke="#3A3734" stroke-miterlimit="10" stroke-linecap="round" stroke-linejoin="round"/>
<path d="M3.03516 14.1999L4.35893 15.0976" stroke="#3A3734" stroke-miterlimit="10" stroke-linecap="round" stroke-linejoin="round"/>
<path d="M7.57163 17.2743L9.28988 18.4417L15.1426 11.5994C16.5346 9.48428 16.0756 7.14957 13.9933 5.73564L13.7846 5.59309C11.7023 4.17917 8.86126 4.75707 7.47301 6.87217L5.12891 10.4359" stroke="#3A3734" stroke-miterlimit="10" stroke-linecap="round" stroke-linejoin="round"/>
<path d="M3.03516 14.1999L4.35893 15.0976" stroke="#3A3734" stroke-miterlimit="10" stroke-linecap="round" stroke-linejoin="round"/>
<path d="M7.73852 17.3899L9.03574 18.2683L12.8174 12.5163C13.9364 10.8134 13.4812 8.49413 11.8047 7.35759L11.634 7.24201C9.95746 6.10548 7.67404 6.5678 6.55509 8.27067L5.12891 10.4397" stroke="#3A3734" stroke-miterlimit="10" stroke-linecap="round" stroke-linejoin="round"/>
<path d="M14.7558 6.29042C14.7558 6.29042 17.6006 3.82472 17.923 2.81148C18.2454 1.79823 17.4564 1.26656 17.4564 1.26656C17.4564 1.26656 16.7244 0.661694 15.8671 1.27427C15.0099 1.88684 13.542 5.3812 13.542 5.3812" stroke="#3A3734" stroke-miterlimit="10" stroke-linecap="round" stroke-linejoin="round"/>
</svg>
